<svg width="21" height="12" viewBox="0 0 21 12" fill="none" xmlns="http://www.w3.org/2000/svg">
<path d="M17.6446 6.69945H1.40235C0.897032 6.69945 0.5 6.3977 0.5 6.01366C0.5 5.62963 0.897032 5.32788 1.40235 5.32788H17.6446C18.1499 5.32788 18.5469 5.62963 18.5469 6.01366C18.5469 6.3977 18.1499 6.69945 17.6446 6.69945Z" fill="white"/>
<path d="M13.1328 11.5C13.0145 11.501 12.8971 11.4833 12.7884 11.4479C12.6796 11.4124 12.5817 11.3601 12.5012 11.2942C12.1402 11.0199 12.1402 10.5947 12.5012 10.3204L18.1859 5.99998L12.5012 1.67955C12.1402 1.40523 12.1402 0.980048 12.5012 0.705735C12.8621 0.431422 13.4216 0.431422 13.7825 0.705735L20.0989 5.50621C20.4599 5.78053 20.4599 6.20571 20.0989 6.48002L13.7825 11.2805C13.602 11.4177 13.3674 11.4862 13.1509 11.4862L13.1328 11.5Z" fill="white"/>
</svg>
