<svg width="20" height="12" viewBox="0 0 20 12" fill="none" xmlns="http://www.w3.org/2000/svg">
<path d="M17.1446 6.33519H0.902345C0.397032 6.33519 0 6.03344 0 5.64941C0 5.26537 0.397032 4.96362 0.902345 4.96362H17.1446C17.6499 4.96362 18.0469 5.26537 18.0469 5.64941C18.0469 6.03344 17.6499 6.33519 17.1446 6.33519Z" fill="#2A448D"/>
<path d="M12.6328 11.1357C12.5145 11.1368 12.3971 11.1191 12.2884 11.0836C12.1796 11.0482 12.0817 10.9958 12.0012 10.93C11.6402 10.6556 11.6402 10.2305 12.0012 9.95615L17.6859 5.63572L12.0012 1.31529C11.6402 1.04098 11.6402 0.61579 12.0012 0.341477C12.3621 0.0671639 12.9216 0.0671639 13.2825 0.341477L19.5989 5.14195C19.9599 5.41627 19.9599 5.84145 19.5989 6.11577L13.2825 10.9162C13.102 11.0534 12.8674 11.122 12.6509 11.122L12.6328 11.1357Z" fill="#2A448D"/>
</svg>
