<svg width="36" height="37" viewBox="0 0 36 37" fill="none" xmlns="http://www.w3.org/2000/svg">
<path d="M32.25 6.5H29V8.5H32V30.5H4.00001V8.5H7.00001V6.5H3.75001C3.51625 6.50391 3.28555 6.55383 3.07108 6.64691C2.85661 6.73999 2.66258 6.87441 2.50007 7.04249C2.33757 7.21057 2.20976 7.40902 2.12396 7.6265C2.03816 7.84398 1.99604 8.07624 2.00001 8.31V30.69C1.99604 30.9238 2.03816 31.156 2.12396 31.3735C2.20976 31.591 2.33757 31.7894 2.50007 31.9575C2.66258 32.1256 2.85661 32.26 3.07108 32.3531C3.28555 32.4462 3.51625 32.4961 3.75001 32.5H32.25C32.4838 32.4961 32.7145 32.4462 32.9289 32.3531C33.1434 32.26 33.3374 32.1256 33.5 31.9575C33.6625 31.7894 33.7903 31.591 33.8761 31.3735C33.9619 31.156 34.004 30.9238 34 30.69V8.31C34.004 8.07624 33.9619 7.84398 33.8761 7.6265C33.7903 7.40902 33.6625 7.21057 33.5 7.04249C33.3374 6.87441 33.1434 6.73999 32.9289 6.64691C32.7145 6.55383 32.4838 6.50391 32.25 6.5Z" fill="#2A448D"/>
<path d="M8 14.5H10V16.5H8V14.5Z" fill="#2A448D"/>
<path d="M14 14.5H16V16.5H14V14.5Z" fill="#2A448D"/>
<path d="M20 14.5H22V16.5H20V14.5Z" fill="#2A448D"/>
<path d="M26 14.5H28V16.5H26V14.5Z" fill="#2A448D"/>
<path d="M8 19.5H10V21.5H8V19.5Z" fill="#2A448D"/>
<path d="M14 19.5H16V21.5H14V19.5Z" fill="#2A448D"/>
<path d="M20 19.5H22V21.5H20V19.5Z" fill="#2A448D"/>
<path d="M26 19.5H28V21.5H26V19.5Z" fill="#2A448D"/>
<path d="M8 24.5H10V26.5H8V24.5Z" fill="#2A448D"/>
<path d="M14 24.5H16V26.5H14V24.5Z" fill="#2A448D"/>
<path d="M20 24.5H22V26.5H20V24.5Z" fill="#2A448D"/>
<path d="M26 24.5H28V26.5H26V24.5Z" fill="#2A448D"/>
<path d="M10 10.5C10.2652 10.5 10.5196 10.3946 10.7071 10.2071C10.8946 10.0196 11 9.76522 11 9.5V3.5C11 3.23478 10.8946 2.98043 10.7071 2.79289C10.5196 2.60536 10.2652 2.5 10 2.5C9.73478 2.5 9.48043 2.60536 9.29289 2.79289C9.10536 2.98043 9 3.23478 9 3.5V9.5C9 9.76522 9.10536 10.0196 9.29289 10.2071C9.48043 10.3946 9.73478 10.5 10 10.5Z" fill="#2A448D"/>
<path d="M26 10.5C26.2652 10.5 26.5196 10.3946 26.7071 10.2071C26.8946 10.0196 27 9.76522 27 9.5V3.5C27 3.23478 26.8946 2.98043 26.7071 2.79289C26.5196 2.60536 26.2652 2.5 26 2.5C25.7348 2.5 25.4804 2.60536 25.2929 2.79289C25.1054 2.98043 25 3.23478 25 3.5V9.5C25 9.76522 25.1054 10.0196 25.2929 10.2071C25.4804 10.3946 25.7348 10.5 26 10.5Z" fill="#2A448D"/>
<path d="M13 6.5H23V8.5H13V6.5Z" fill="#2A448D"/>
</svg>
