<svg width="23" height="31" viewBox="0 0 23 31" fill="none" xmlns="http://www.w3.org/2000/svg">
<path d="M3.16667 29.2917C2.29583 29.2917 1.55061 28.99 0.931 28.3867C0.311389 27.7834 0.00105556 27.0573 0 26.2083V9.25C0 8.40208 0.310333 7.67647 0.931 7.07317C1.55167 6.46986 2.29689 6.16769 3.16667 6.16667H6.33333V3.08333C6.33333 2.23542 6.64367 1.50981 7.26433 0.9065C7.885 0.303195 8.63022 0.00102778 9.5 0H12.6667C13.5375 0 14.2833 0.302167 14.9039 0.9065C15.5246 1.51083 15.8344 2.23644 15.8333 3.08333V6.16667H19C19.8708 6.16667 20.6166 6.46883 21.2373 7.07317C21.8579 7.6775 22.1677 8.40311 22.1667 9.25V26.2083C22.1667 27.0562 21.8569 27.7824 21.2373 28.3867C20.6176 28.991 19.8719 29.2927 19 29.2917C19 29.7285 18.848 30.0949 18.544 30.3909C18.24 30.6869 17.8642 30.8344 17.4167 30.8333C16.9691 30.8323 16.5933 30.6843 16.2893 30.3893C15.9853 30.0944 15.8333 29.7285 15.8333 29.2917H6.33333C6.33333 29.7285 6.18133 30.0949 5.87733 30.3909C5.57333 30.6869 5.19756 30.8344 4.75 30.8333C4.30244 30.8323 3.92667 30.6843 3.62267 30.3893C3.31867 30.0944 3.16667 29.7285 3.16667 29.2917ZM6.33333 24.6667H9.5V10.7917H6.33333V24.6667ZM12.6667 24.6667H15.8333V10.7917H12.6667V24.6667ZM9.5 6.16667H12.6667V3.08333H9.5V6.16667Z" fill="#2A448D"/>
</svg>
