<svg width="25" height="35" viewBox="0 0 25 35" fill="none" xmlns="http://www.w3.org/2000/svg">
<path d="M12.4447 2C6.52011 2 1.71338 6.57496 1.71338 12.2096C1.71338 18.6931 8.86758 28.9676 11.4945 32.5164C11.6036 32.6662 11.7465 32.7881 11.9116 32.8721C12.0767 32.9562 12.2594 33 12.4447 33C12.63 33 12.8126 32.9562 12.9778 32.8721C13.1429 32.7881 13.2858 32.6662 13.3948 32.5164C16.0218 28.9691 23.176 18.6984 23.176 12.2096C23.176 6.57496 18.3693 2 12.4447 2Z" stroke="#2A448D" stroke-width="3" stroke-linecap="round" stroke-linejoin="round"/>
<path d="M12.4448 16.3085C14.4204 16.3085 16.0219 14.707 16.0219 12.7314C16.0219 10.7558 14.4204 9.1543 12.4448 9.1543C10.4692 9.1543 8.86768 10.7558 8.86768 12.7314C8.86768 14.707 10.4692 16.3085 12.4448 16.3085Z" stroke="#2A448D" stroke-width="3" stroke-linecap="round" stroke-linejoin="round"/>
</svg>
