<svg width="24" height="19" viewBox="0 0 24 19" fill="none" xmlns="http://www.w3.org/2000/svg">
<path d="M2.4 19C1.74 19 1.1748 18.7673 0.704402 18.3018C0.234002 17.8363 -0.000797963 17.2773 2.03735e-06 16.625V2.375C2.03735e-06 1.72188 0.235202 1.16256 0.705602 0.697064C1.176 0.231564 1.7408 -0.00078965 2.4 2.01613e-06H21.6C22.26 2.01613e-06 22.8252 0.232752 23.2956 0.698252C23.766 1.16375 24.0008 1.72267 24 2.375V16.625C24 17.2781 23.7648 17.8374 23.2944 18.3029C22.824 18.7684 22.2592 19.0008 21.6 19H2.4ZM12 10.6875L2.4 4.75V16.625H21.6V4.75L12 10.6875ZM12 8.3125L21.6 2.375H2.4L12 8.3125ZM2.4 4.75V2.375V16.625V4.75Z" fill="#2A448D"/>
</svg>
