<svg width="20" height="20" viewBox="0 0 20 20" fill="none" xmlns="http://www.w3.org/2000/svg">
<path d="M10 10C8.625 10 7.44792 9.51042 6.46875 8.53125C5.48958 7.55208 5 6.375 5 5C5 3.625 5.48958 2.44792 6.46875 1.46875C7.44792 0.489584 8.625 0 10 0C11.375 0 12.5521 0.489584 13.5312 1.46875C14.5104 2.44792 15 3.625 15 5C15 6.375 14.5104 7.55208 13.5312 8.53125C12.5521 9.51042 11.375 10 10 10ZM0 20V16.5C0 15.7917 0.1825 15.1404 0.5475 14.5463C0.9125 13.9521 1.39667 13.4992 2 13.1875C3.29167 12.5417 4.60417 12.0571 5.9375 11.7338C7.27083 11.4104 8.625 11.2492 10 11.25C11.375 11.25 12.7292 11.4117 14.0625 11.735C15.3958 12.0583 16.7083 12.5425 18 13.1875C18.6042 13.5 19.0887 13.9533 19.4537 14.5475C19.8187 15.1417 20.0008 15.7925 20 16.5V20H0ZM2.5 17.5H17.5V16.5C17.5 16.2708 17.4425 16.0625 17.3275 15.875C17.2125 15.6875 17.0617 15.5417 16.875 15.4375C15.75 14.875 14.6146 14.4533 13.4687 14.1725C12.3229 13.8917 11.1667 13.7508 10 13.75C8.83333 13.75 7.67708 13.8908 6.53125 14.1725C5.38542 14.4542 4.25 14.8758 3.125 15.4375C2.9375 15.5417 2.78625 15.6875 2.67125 15.875C2.55625 16.0625 2.49917 16.2708 2.5 16.5V17.5ZM10 7.5C10.6875 7.5 11.2762 7.255 11.7662 6.765C12.2562 6.275 12.5008 5.68667 12.5 5C12.5 4.3125 12.255 3.72375 11.765 3.23375C11.275 2.74375 10.6867 2.49917 10 2.5C9.3125 2.5 8.72375 2.745 8.23375 3.235C7.74375 3.725 7.49917 4.31333 7.5 5C7.5 5.6875 7.745 6.27625 8.235 6.76625C8.725 7.25625 9.31333 7.50083 10 7.5Z" fill="#2A448D"/>
</svg>
